<svg xmlns="http://www.w3.org/2000/svg" width="800" height="400" viewBox="0 0 800 400" fill="none">
  <rect width="800" height="400" rx="10" fill="#f5f7ff"/>
  
  <!-- Dashboard Header -->
  <rect x="50" y="30" width="700" height="60" rx="5" fill="#ffffff" stroke="#e0e4f0" stroke-width="2"/>
  <rect x="70" y="50" width="120" height="20" rx="3" fill="#3f51b5"/>
  <rect x="550" y="50" width="80" height="20" rx="3" fill="#e0e4f0"/>
  <rect x="650" y="50" width="80" height="20" rx="3" fill="#e0e4f0"/>
  
  <!-- Stats Cards -->
  <rect x="50" y="110" width="160" height="100" rx="5" fill="#ffffff" stroke="#e0e4f0" stroke-width="2"/>
  <rect x="70" y="130" width="80" height="15" rx="3" fill="#e0e4f0"/>
  <rect x="70" y="155" width="120" height="25" rx="3" fill="#3f51b5"/>
  
  <rect x="230" y="110" width="160" height="100" rx="5" fill="#ffffff" stroke="#e0e4f0" stroke-width="2"/>
  <rect x="250" y="130" width="80" height="15" rx="3" fill="#e0e4f0"/>
  <rect x="250" y="155" width="120" height="25" rx="3" fill="#4caf50"/>
  
  <rect x="410" y="110" width="160" height="100" rx="5" fill="#ffffff" stroke="#e0e4f0" stroke-width="2"/>
  <rect x="430" y="130" width="80" height="15" rx="3" fill="#e0e4f0"/>
  <rect x="430" y="155" width="120" height="25" rx="3" fill="#ff9800"/>
  
  <rect x="590" y="110" width="160" height="100" rx="5" fill="#ffffff" stroke="#e0e4f0" stroke-width="2"/>
  <rect x="610" y="130" width="80" height="15" rx="3" fill="#e0e4f0"/>
  <rect x="610" y="155" width="120" height="25" rx="3" fill="#e91e63"/>
  
  <!-- Chart Area -->
  <rect x="50" y="230" width="450" height="150" rx="5" fill="#ffffff" stroke="#e0e4f0" stroke-width="2"/>
  <rect x="70" y="250" width="100" height="15" rx="3" fill="#e0e4f0"/>
  
  <!-- Chart Visualization -->
  <path d="M70 330 L520 330" stroke="#e0e4f0" stroke-width="1"/>
  <path d="M70 290 L520 290" stroke="#e0e4f0" stroke-width="1"/>
  <path d="M70 250 L520 250" stroke="#e0e4f0" stroke-width="1"/>
  
  <path d="M100 330 L100 280" stroke="#3f51b5" stroke-width="8"/>
  <path d="M150 330 L150 260" stroke="#3f51b5" stroke-width="8"/>
  <path d="M200 330 L200 310" stroke="#3f51b5" stroke-width="8"/>
  <path d="M250 330 L250 270" stroke="#3f51b5" stroke-width="8"/>
  <path d="M300 330 L300 250" stroke="#3f51b5" stroke-width="8"/>
  <path d="M350 330 L350 290" stroke="#3f51b5" stroke-width="8"/>
  <path d="M400 330 L400 270" stroke="#3f51b5" stroke-width="8"/>
  <path d="M450 330 L450 290" stroke="#3f51b5" stroke-width="8"/>
  
  <!-- Recent Activity Table -->
  <rect x="520" y="230" width="230" height="150" rx="5" fill="#ffffff" stroke="#e0e4f0" stroke-width="2"/>
  <rect x="540" y="250" width="100" height="15" rx="3" fill="#e0e4f0"/>
  
  <rect x="540" y="275" width="190" height="1" fill="#e0e4f0"/>
  
  <rect x="540" y="285" width="140" height="10" rx="2" fill="#e0e4f0"/>
  <rect x="690" y="285" width="40" height="10" rx="2" fill="#4caf50"/>
  
  <rect x="540" y="305" width="140" height="10" rx="2" fill="#e0e4f0"/>
  <rect x="690" y="305" width="40" height="10" rx="2" fill="#ff9800"/>
  
  <rect x="540" y="325" width="140" height="10" rx="2" fill="#e0e4f0"/>
  <rect x="690" y="325" width="40" height="10" rx="2" fill="#e91e63"/>
  
  <rect x="540" y="345" width="140" height="10" rx="2" fill="#e0e4f0"/>
  <rect x="690" y="345" width="40" height="10" rx="2" fill="#4caf50"/>
</svg>