<svg xmlns="http://www.w3.org/2000/svg" width="100" height="32" viewBox="0 0 100 32" fill="none">
  <path d="M16 0C7.163 0 0 7.163 0 16C0 24.837 7.163 32 16 32C24.837 32 32 24.837 32 16C32 7.163 24.837 0 16 0ZM16 24C11.582 24 8 20.418 8 16C8 11.582 11.582 8 16 8C20.418 8 24 11.582 24 16C24 20.418 20.418 24 16 24Z" fill="white"/>
  <path d="M42.424 9.464H47.256V23H44.84V11.688H42.424V9.464ZM54.8345 9.32C55.9705 9.32 56.9705 9.592 57.8345 10.136C58.6985 10.68 59.3785 11.44 59.8745 12.416C60.3705 13.392 60.6185 14.512 60.6185 15.776C60.6185 17.04 60.3705 18.16 59.8745 19.136C59.3785 20.112 58.6985 20.872 57.8345 21.416C56.9705 21.96 55.9705 22.232 54.8345 22.232C53.2985 22.232 52.0825 21.704 51.1865 20.648C50.2905 19.576 49.8425 17.976 49.8425 15.848V15.56C49.8425 13.416 50.2985 11.808 51.2105 10.736C52.1385 9.648 53.3385 9.104 54.8345 9.104V9.32ZM54.8345 11.472C54.1785 11.472 53.6345 11.656 53.2025 12.024C52.7705 12.376 52.4505 12.896 52.2425 13.584C52.0345 14.272 51.9305 15.096 51.9305 16.056C51.9305 17.016 52.0345 17.84 52.2425 18.528C52.4505 19.216 52.7785 19.744 53.2265 20.112C53.6745 20.464 54.2105 20.64 54.8345 20.64C55.4585 20.64 55.9945 20.456 56.4425 20.088C56.8905 19.72 57.2185 19.192 57.4265 18.504C57.6345 17.816 57.7385 16.984 57.7385 16.008C57.7385 15.048 57.6345 14.232 57.4265 13.56C57.2185 12.872 56.8905 12.352 56.4425 12C55.9945 11.648 55.4585 11.472 54.8345 11.472ZM68.084 9.464V11.328H61.1V9.464H68.084ZM63.108 6.848H65.524V19.304C65.524 19.672 65.58 19.952 65.692 20.144C65.82 20.32 65.98 20.44 66.172 20.504C66.38 20.552 66.604 20.576 66.844 20.576C67.02 20.576 67.18 20.568 67.324 20.552C67.468 20.52 67.588 20.496 67.684 20.48L67.732 22.376C67.508 22.44 67.26 22.496 66.988 22.544C66.716 22.592 66.404 22.616 66.052 22.616C65.492 22.616 64.98 22.512 64.516 22.304C64.052 22.096 63.684 21.752 63.412 21.272C63.14 20.792 63.004 20.16 63.004 19.376V6.848H63.108ZM76.0375 9.464V11.328H69.0535V9.464H76.0375ZM71.0615 6.848H73.4775V19.304C73.4775 19.672 73.5335 19.952 73.6455 20.144C73.7735 20.32 73.9335 20.44 74.1255 20.504C74.3335 20.552 74.5575 20.576 74.7975 20.576C74.9735 20.576 75.1335 20.568 75.2775 20.552C75.4215 20.52 75.5415 20.496 75.6375 20.48L75.6855 22.376C75.4615 22.44 75.2135 22.496 74.9415 22.544C74.6695 22.592 74.3575 22.616 74.0055 22.616C73.4455 22.616 72.9335 22.512 72.4695 22.304C72.0055 22.096 71.6375 21.752 71.3655 21.272C71.0935 20.792 70.9575 20.16 70.9575 19.376V6.848H71.0615ZM83.687 9.392C85.287 9.392 86.527 9.84 87.407 10.736C88.303 11.616 88.751 12.864 88.751 14.48V23H86.335V14.864C86.335 13.952 86.095 13.264 85.615 12.8C85.151 12.336 84.495 12.104 83.647 12.104C82.815 12.104 82.143 12.344 81.631 12.824C81.135 13.304 80.887 13.992 80.887 14.888V23H78.471V9.464H80.887V11.304C81.223 10.696 81.695 10.216 82.303 9.864C82.927 9.512 83.655 9.392 84.487 9.392H83.687Z" fill="white"/>
</svg>